# xmcd
#
# Track frame offsets:
#	150
#	12668
#	29682
#	43249
#	59740
#	76366
#	92338
#	111037
#	125724
#	142899
#	152392
#	171884
#	186684
#	199353
#	215602
#	238031
#
# Disc length: 3434 seconds
#
# Revision: 2
# Processed by: cddbd v1.5.2PL0 Copyright (c) Steve Scherf et al.
# Submitted via: audiograbber 1.83.01
#
DISCID=ee0d6810
DTITLE=Country Love Songs 3 - KBA33862
DYEAR=2005
DGENRE=Karaoke
TTITLE0=Twitty, Conway - Hello Darlin' 
TTITLE1=Clark, Terri - Now That I've Found You
TTITLE2=Arnold, Eddy - Make The World Go Away
TTITLE3=Thomas, B.J. - Another Somebody Done Somebody Wrong Song
TTITLE4=Alabama - Close Enough To Perfect
TTITLE5=Mattea, Kathy - Eighteen Wheels And A Dozen Roses
TTITLE6=Urban, Keith - Your Everything
TTITLE7=Strait, George - Love Without End, Amen
TTITLE8=Chesney, Kenny - Me And You
TTITLE9=Pride, Charley - Kiss An Angel Good Mornin'
TTITLE10=Newton-John, Olivia - I Honestly Love You
TTITLE11=Cline, Patsy - She's Got You
TTITLE12=Smith, Sammi - Help Me Make It Through The Night
TTITLE13=Colter, Jessi - I'm Not Lisa
TTITLE14=Judds, The - Love Can Build A Bridge
TTITLE15=Krauss, Alison and Union Station  - When You Say Nothing At All
EXTD=
EXTT0=
EXTT1=
EXTT2=
EXTT3=
EXTT4=
EXTT5=
EXTT6=
EXTT7=
EXTT8=
EXTT9=
EXTT10=
EXTT11=
EXTT12=
EXTT13=
EXTT14=
EXTT15=
PLAYORDER=
